<svg width="480" height="395" viewBox="0 0 480 395" fill="none" xmlns="http://www.w3.org/2000/svg">
<g clip-path="url(#clip0_3:479)">
<mask id="mask0_3:479" style="mask-type:alpha" maskUnits="userSpaceOnUse" x="0" y="77" width="480" height="318">
<path d="M3.85163 98.7451C2.25812 98.9569 1 100.393 1 102.008V390.992C1 392.702 2.41733 393.953 4.11513 393.728L158.148 373.255C159.157 373.121 160.843 373.118 161.848 373.25L318.893 393.734C320.072 393.887 321.929 393.885 323.118 393.726L476.148 373.257C477.741 373.044 479 371.607 479 369.992V81.0076C479 79.299 477.589 78.046 475.882 78.2743L322.852 98.7433C321.843 98.8784 320.156 98.8815 319.152 98.7505L162.107 78.2663C160.928 78.1125 159.066 78.1153 157.885 78.2723L3.85163 98.7451Z" fill="white" stroke="black" stroke-width="2"/>
</mask>
<g mask="url(#mask0_3:479)">
<path d="M3.98338 99.7364C2.88799 99.882 2 100.893 2 102.008V390.992C2 392.101 2.88857 392.882 3.98338 392.736L158.017 372.264C159.112 372.118 160.886 372.116 161.978 372.258L319.022 392.742C320.115 392.885 321.883 392.882 322.985 392.734L476.015 372.265C477.111 372.119 478 371.107 478 369.992V81.0076C478 79.8988 477.117 79.1181 476.015 79.2655L322.985 99.7345C321.889 99.8811 320.114 99.8845 319.022 99.7421L161.978 79.2579C160.885 79.1155 159.111 79.1181 158.017 79.2636L3.98338 99.7364Z" fill="white"/>
<path fill-rule="evenodd" clip-rule="evenodd" d="M3.85163 98.7451L157.885 78.2723C159.066 78.1153 160.928 78.1126 162.107 78.2663L319.152 98.7505C320.157 98.8815 321.843 98.8783 322.852 98.7433L475.882 78.2743C477.583 78.0468 479 79.293 479 81.0076V369.992C479 371.606 477.742 373.043 476.148 373.257L323.118 393.726C321.931 393.884 320.074 393.888 318.893 393.734L161.848 373.25C160.843 373.118 159.157 373.121 158.148 373.255L4.11513 393.728C2.41992 393.953 1 392.705 1 390.992V102.008C1 100.394 2.25708 98.957 3.85163 98.7451Z" stroke="#23292F" stroke-width="2"/>
<path fill-rule="evenodd" clip-rule="evenodd" d="M18 139V179C18 180.049 18.8064 180.76 19.8485 180.627L141.897 164.983C143.043 164.836 144 163.748 144 162.593V122.594C144 121.545 143.194 120.833 142.152 120.967L20.1027 136.61C18.9569 136.757 18 137.845 18 139Z" stroke="#E9E9EA" stroke-width="2"/>
<path d="M59.0068 139.453L70.9932 138.008C71.5492 137.94 72 138.33 72 138.886C72 139.438 71.5501 139.94 70.9932 140.008L59.0068 141.453C58.4508 141.52 58 141.13 58 140.574C58 140.022 58.4499 139.52 59.0068 139.453Z" fill="#D8D8D8"/>
<path fill-rule="evenodd" clip-rule="evenodd" d="M59.0667 139.949C58.76 139.986 58.5 140.276 58.5 140.574C58.5 140.827 58.6851 140.988 58.947 140.956L70.9333 139.511C71.24 139.474 71.5 139.184 71.5 138.886C71.5 138.633 71.3149 138.472 71.053 138.504L59.0667 139.949Z" stroke="#E9E9EA"/>
<path d="M59.0068 144.453L70.9932 143.008C71.5492 142.94 72 143.33 72 143.886C72 144.438 71.5501 144.94 70.9932 145.008L59.0068 146.453C58.4508 146.52 58 146.13 58 145.574C58 145.022 58.4499 144.52 59.0068 144.453Z" fill="#D8D8D8"/>
<path fill-rule="evenodd" clip-rule="evenodd" d="M59.0667 144.949C58.76 144.986 58.5 145.276 58.5 145.574C58.5 145.827 58.6851 145.988 58.947 145.956L70.9333 144.511C71.24 144.474 71.5 144.184 71.5 143.886C71.5 143.633 71.3149 143.472 71.053 143.504L59.0667 144.949Z" stroke="#E9E9EA"/>
<path d="M59.0068 149.453L70.9932 148.008C71.5492 147.94 72 148.33 72 148.886C72 149.438 71.5501 149.94 70.9932 150.008L59.0068 151.453C58.4508 151.52 58 151.13 58 150.574C58 150.022 58.4499 149.52 59.0068 149.453Z" fill="#D8D8D8"/>
<path fill-rule="evenodd" clip-rule="evenodd" d="M59.0667 149.949C58.76 149.986 58.5 150.276 58.5 150.574C58.5 150.827 58.6851 150.988 58.947 150.956L70.9333 149.511C71.24 149.474 71.5 149.184 71.5 148.886C71.5 148.633 71.3149 148.472 71.053 148.504L59.0667 149.949Z" stroke="#E9E9EA"/>
<path d="M54.1438 140.549L55.8562 140.248C55.9356 140.235 56 140.667 56 141.223C56 141.776 55.9357 142.235 55.8562 142.248L54.1438 142.549C54.0644 142.563 54 142.13 54 141.574C54 141.022 54.0643 140.563 54.1438 140.549Z" fill="#D8D8D8"/>
<path fill-rule="evenodd" clip-rule="evenodd" d="M54.5296 140.989C54.5109 141.149 54.5 141.355 54.5 141.574C54.5 141.719 54.5047 141.856 54.5133 141.976L55.4704 141.809C55.4891 141.649 55.5 141.442 55.5 141.223C55.5 141.078 55.4953 140.941 55.4867 140.821L54.5296 140.989Z" stroke="#E9E9EA"/>
<path d="M54.1438 145.549L55.8562 145.248C55.9356 145.235 56 145.667 56 146.223C56 146.776 55.9357 147.235 55.8562 147.248L54.1438 147.549C54.0644 147.563 54 147.13 54 146.574C54 146.022 54.0643 145.563 54.1438 145.549Z" fill="#D8D8D8"/>
<path fill-rule="evenodd" clip-rule="evenodd" d="M54.5296 145.989C54.5109 146.149 54.5 146.355 54.5 146.574C54.5 146.719 54.5047 146.856 54.5133 146.976L55.4704 146.809C55.4891 146.649 55.5 146.442 55.5 146.223C55.5 146.078 55.4953 145.941 55.4867 145.821L54.5296 145.989Z" stroke="#E9E9EA"/>
<path d="M54.1438 150.549L55.8562 150.248C55.9356 150.235 56 150.667 56 151.223C56 151.776 55.9357 152.235 55.8562 152.248L54.1438 152.549C54.0644 152.563 54 152.13 54 151.574C54 151.022 54.0643 150.563 54.1438 150.549Z" fill="#D8D8D8"/>
<path fill-rule="evenodd" clip-rule="evenodd" d="M54.5296 150.989C54.5109 151.149 54.5 151.355 54.5 151.574C54.5 151.719 54.5047 151.856 54.5133 151.976L55.4704 151.809C55.4891 151.649 55.5 151.442 55.5 151.223C55.5 151.078 55.4953 150.941 55.4867 150.821L54.5296 150.989Z" stroke="#E9E9EA"/>
<path d="M59.0068 158.453L70.9932 157.008C71.5492 156.94 72 157.33 72 157.886C72 158.438 71.5501 158.94 70.9932 159.008L59.0068 160.453C58.4508 160.52 58 160.13 58 159.574C58 159.022 58.4499 158.52 59.0068 158.453Z" fill="#D8D8D8"/>
<path fill-rule="evenodd" clip-rule="evenodd" d="M59.0667 158.949C58.76 158.986 58.5 159.276 58.5 159.574C58.5 159.827 58.6851 159.988 58.947 159.956L70.9333 158.511C71.24 158.474 71.5 158.184 71.5 157.886C71.5 157.633 71.3149 157.472 71.053 157.504L59.0667 158.949Z" stroke="#E9E9EA"/>
<path d="M59.0068 163.453L70.9932 162.008C71.5492 161.94 72 162.33 72 162.886C72 163.438 71.5501 163.94 70.9932 164.008L59.0068 165.453C58.4508 165.52 58 165.13 58 164.574C58 164.022 58.4499 163.52 59.0068 163.453Z" fill="#D8D8D8"/>
<path fill-rule="evenodd" clip-rule="evenodd" d="M59.0667 163.949C58.76 163.986 58.5 164.276 58.5 164.574C58.5 164.827 58.6851 164.988 58.947 164.956L70.9333 163.511C71.24 163.474 71.5 163.184 71.5 162.886C71.5 162.633 71.3149 162.472 71.053 162.504L59.0667 163.949Z" stroke="#E9E9EA"/>
<path d="M59.0068 168.453L70.9932 167.008C71.5492 166.94 72 167.33 72 167.886C72 168.438 71.5501 168.94 70.9932 169.008L59.0068 170.453C58.4508 170.52 58 170.13 58 169.574C58 169.022 58.4499 168.52 59.0068 168.453Z" fill="#D8D8D8"/>
<path fill-rule="evenodd" clip-rule="evenodd" d="M59.0667 168.949C58.76 168.986 58.5 169.276 58.5 169.574C58.5 169.827 58.6851 169.988 58.947 169.956L70.9333 168.511C71.24 168.474 71.5 168.184 71.5 167.886C71.5 167.633 71.3149 167.472 71.053 167.504L59.0667 168.949Z" stroke="#E9E9EA"/>
<path d="M54.1438 159.549L55.8562 159.248C55.9356 159.235 56 159.667 56 160.223C56 160.776 55.9357 161.235 55.8562 161.248L54.1438 161.549C54.0644 161.563 54 161.13 54 160.574C54 160.022 54.0643 159.563 54.1438 159.549Z" fill="#D8D8D8"/>
<path fill-rule="evenodd" clip-rule="evenodd" d="M54.5296 159.989C54.5109 160.149 54.5 160.355 54.5 160.574C54.5 160.719 54.5047 160.856 54.5133 160.976L55.4704 160.809C55.4891 160.649 55.5 160.442 55.5 160.223C55.5 160.078 55.4953 159.941 55.4867 159.821L54.5296 159.989Z" stroke="#E9E9EA"/>
<path d="M54.1438 164.549L55.8562 164.248C55.9356 164.235 56 164.667 56 165.223C56 165.776 55.9357 166.235 55.8562 166.248L54.1438 166.549C54.0644 166.563 54 166.13 54 165.574C54 165.022 54.0643 164.563 54.1438 164.549Z" fill="#D8D8D8"/>
<path fill-rule="evenodd" clip-rule="evenodd" d="M54.5296 164.989C54.5109 165.149 54.5 165.355 54.5 165.574C54.5 165.719 54.5047 165.856 54.5133 165.976L55.4704 165.809C55.4891 165.649 55.5 165.442 55.5 165.223C55.5 165.078 55.4953 164.941 55.4867 164.821L54.5296 164.989Z" stroke="#E9E9EA"/>
<path d="M54.1438 169.549L55.8562 169.248C55.9356 169.235 56 169.667 56 170.223C56 170.776 55.9357 171.235 55.8562 171.248L54.1438 171.549C54.0644 171.563 54 171.13 54 170.574C54 170.022 54.0643 169.563 54.1438 169.549Z" fill="#D8D8D8"/>
<path fill-rule="evenodd" clip-rule="evenodd" d="M54.5296 169.989C54.5109 170.149 54.5 170.355 54.5 170.574C54.5 170.719 54.5047 170.856 54.5133 170.976L55.4704 170.809C55.4891 170.649 55.5 170.442 55.5 170.223C55.5 170.078 55.4953 169.941 55.4867 169.821L54.5296 169.989Z" stroke="#E9E9EA"/>
<path d="M51 133H49V176H51V133Z" fill="#E9E9EA"/>
<path fill-rule="evenodd" clip-rule="evenodd" d="M24 143.596C24 142.585 24.777 141.672 25.7423 141.558L31.3913 140.888C32.832 140.717 34 141.807 34 143.322V155.221L33.5566 154.457C32.841 153.224 31.0948 152.362 29.6528 152.533L25.7418 152.997C24.7798 153.111 24 152.381 24 151.372V143.596ZM26.6087 146.488C26.6087 146.743 26.8031 146.923 27.0428 146.894L31.8267 146.327C32.0663 146.299 32.2609 146.071 32.2609 145.818C32.2609 145.564 32.0665 145.384 31.8267 145.412L27.0428 145.979C26.8033 146.008 26.6087 146.236 26.6087 146.488ZM26.6087 148.319C26.6087 148.573 26.8031 148.753 27.0428 148.725L31.8267 148.158C32.0663 148.129 32.2609 147.901 32.2609 147.648C32.2609 147.394 32.0665 147.214 31.8267 147.242L27.0428 147.81C26.8033 147.838 26.6087 148.066 26.6087 148.319ZM26.6087 150.149C26.6087 150.403 26.8031 150.583 27.0428 150.555L31.8267 149.988C32.0663 149.959 32.2609 149.731 32.2609 149.479C32.2609 149.224 32.0665 149.044 31.8267 149.073L27.0428 149.64C26.8033 149.668 26.6087 149.896 26.6087 150.149ZM44 141.225V149.001C44 150.01 43.2202 150.925 42.2582 151.039L38.3472 151.502C36.9052 151.673 35.159 152.949 34.4434 154.352L34 155.221V143.324C34 141.807 35.168 140.44 36.6087 140.27L42.2577 139.6C43.223 139.485 44 140.213 44 141.225ZM41.3913 144.736C41.3913 144.483 41.1967 144.301 40.9572 144.33L36.1733 144.897C35.9335 144.925 35.7391 145.151 35.7391 145.406C35.7391 145.659 35.9337 145.84 36.1733 145.812L40.9572 145.245C41.1969 145.216 41.3913 144.99 41.3913 144.736ZM41.3913 146.566C41.3913 146.313 41.1967 146.131 40.9572 146.16L36.1733 146.727C35.9335 146.755 35.7391 146.982 35.7391 147.236C35.7391 147.489 35.9337 147.671 36.1733 147.642L40.9572 147.075C41.1969 147.047 41.3913 146.82 41.3913 146.566ZM41.3913 148.396C41.3913 148.143 41.1967 147.962 40.9572 147.99L36.1733 148.557C35.9335 148.586 35.7391 148.812 35.7391 149.066C35.7391 149.319 35.9337 149.501 36.1733 149.472L40.9572 148.905C41.1969 148.877 41.3913 148.651 41.3913 148.396Z" fill="#E9E9EA"/>
<path d="M25.0068 166.396L42.9932 163.951C43.5492 163.884 44 164.274 44 164.83C44 165.382 43.5501 165.884 42.9932 165.951L25.0068 168.396C24.4508 168.463 24 168.074 24 167.518C24 166.965 24.4499 166.464 25.0068 166.396Z" fill="#D8D8D8"/>
<path fill-rule="evenodd" clip-rule="evenodd" d="M25.0742 166.892L25.0667 166.893C24.76 166.93 24.5 167.219 24.5 167.518C24.5 167.77 24.6851 167.932 24.9395 167.901L42.9333 165.455C43.24 165.418 43.5 165.128 43.5 164.83C43.5 164.577 43.3149 164.416 43.0605 164.447L25.0742 166.892Z" stroke="#E9E9EA"/>
<path d="M81.0068 160.453L98.9932 158.008C99.5492 157.94 100 158.33 100 158.886C100 159.438 99.5501 159.94 98.9932 160.008L81.0068 162.453C80.4508 162.52 80 162.13 80 161.574C80 161.022 80.4499 160.52 81.0068 160.453Z" fill="#D8D8D8"/>
<path fill-rule="evenodd" clip-rule="evenodd" d="M81.0742 160.948L81.0667 160.949C80.76 160.986 80.5 161.276 80.5 161.574C80.5 161.827 80.6851 161.988 80.9395 161.957L98.9333 159.511C99.24 159.474 99.5 159.184 99.5 158.886C99.5 158.633 99.3149 158.472 99.0605 158.503L81.0742 160.948Z" stroke="#E9E9EA"/>
<path d="M81.0068 154.453L98.9932 152.008C99.5492 151.94 100 152.33 100 152.886C100 153.438 99.5501 153.94 98.9932 154.008L81.0068 156.453C80.4508 156.52 80 156.13 80 155.574C80 155.022 80.4499 154.52 81.0068 154.453Z" fill="#D8D8D8"/>
<path fill-rule="evenodd" clip-rule="evenodd" d="M81.0742 154.948L81.0667 154.949C80.76 154.986 80.5 155.276 80.5 155.574C80.5 155.827 80.6851 155.988 80.9395 155.957L98.9333 153.511C99.24 153.474 99.5 153.184 99.5 152.886C99.5 152.633 99.3149 152.472 99.0605 152.503L81.0742 154.948Z" stroke="#E9E9EA"/>
<path d="M81.0068 148.453L98.9932 146.008C99.5492 145.94 100 146.33 100 146.886C100 147.438 99.5501 147.94 98.9932 148.008L81.0068 150.453C80.4508 150.52 80 150.13 80 149.574C80 149.022 80.4499 148.52 81.0068 148.453Z" fill="#D8D8D8"/>
<path fill-rule="evenodd" clip-rule="evenodd" d="M81.0742 148.948L81.0667 148.949C80.76 148.986 80.5 149.276 80.5 149.574C80.5 149.827 80.6851 149.988 80.9395 149.957L98.9333 147.511C99.24 147.474 99.5 147.184 99.5 146.886C99.5 146.633 99.3149 146.472 99.0605 146.503L81.0742 148.948Z" stroke="#E9E9EA"/>
<path d="M81.0068 142.453L98.9932 140.008C99.5492 139.94 100 140.33 100 140.886C100 141.438 99.5501 141.94 98.9932 142.008L81.0068 144.453C80.4508 144.52 80 144.13 80 143.574C80 143.022 80.4499 142.52 81.0068 142.453Z" fill="#D8D8D8"/>
<path fill-rule="evenodd" clip-rule="evenodd" d="M81.0742 142.948L81.0667 142.949C80.76 142.986 80.5 143.276 80.5 143.574C80.5 143.827 80.6851 143.988 80.9395 143.957L98.9333 141.511C99.24 141.474 99.5 141.184 99.5 140.886C99.5 140.633 99.3149 140.472 99.0605 140.503L81.0742 142.948Z" stroke="#E9E9EA"/>
<path d="M81.0068 136.453L98.9932 134.008C99.5492 133.94 100 134.33 100 134.886C100 135.438 99.5501 135.94 98.9932 136.008L81.0068 138.453C80.4508 138.52 80 138.13 80 137.574C80 137.022 80.4499 136.52 81.0068 136.453Z" fill="#D8D8D8"/>
<path fill-rule="evenodd" clip-rule="evenodd" d="M81.0742 136.948L81.0667 136.949C80.76 136.986 80.5 137.276 80.5 137.574C80.5 137.827 80.6851 137.988 80.9395 137.957L98.9333 135.511C99.24 135.474 99.5 135.184 99.5 134.886C99.5 134.633 99.3149 134.472 99.0605 134.503L81.0742 136.948Z" stroke="#E9E9EA"/>
<path d="M25.0068 171.396L34.9932 169.951C35.5492 169.884 36 170.274 36 170.83C36 171.382 35.5501 171.884 34.9932 171.951L25.0068 173.396C24.4508 173.463 24 173.074 24 172.518C24 171.965 24.4499 171.464 25.0068 171.396Z" fill="#D8D8D8"/>
<path fill-rule="evenodd" clip-rule="evenodd" d="M25.0785 171.891L25.0667 171.893C24.76 171.93 24.5 172.219 24.5 172.518C24.5 172.77 24.6851 172.932 24.9352 172.902L34.9333 171.455C35.24 171.418 35.5 171.128 35.5 170.83C35.5 170.577 35.3149 170.416 35.0648 170.446L25.0785 171.891Z" stroke="#E9E9EA"/>
<path d="M81.0068 165.453L90.9932 164.008C91.5492 163.94 92 164.33 92 164.886C92 165.438 91.5501 165.94 90.9932 166.008L81.0068 167.453C80.4508 167.52 80 167.13 80 166.574C80 166.022 80.4499 165.52 81.0068 165.453Z" fill="#D8D8D8"/>
<path fill-rule="evenodd" clip-rule="evenodd" d="M81.0785 165.947L81.0667 165.949C80.76 165.986 80.5 166.276 80.5 166.574C80.5 166.827 80.6851 166.988 80.9352 166.958L90.9333 165.511C91.24 165.474 91.5 165.184 91.5 164.886C91.5 164.633 91.3149 164.472 91.0648 164.502L81.0785 165.947Z" stroke="#E9E9EA"/>
<g clip-path="url(#clip1_3:479)">
<path d="M268.031 211.687L273.395 213.124C273.751 213.22 274.018 213.437 274.138 213.729C274.258 214.022 274.221 214.364 274.035 214.682L271.232 219.476C271.046 219.794 270.726 220.061 270.343 220.219C269.96 220.376 269.545 220.411 269.19 220.316L263.825 218.878C263.469 218.783 263.202 218.565 263.082 218.273C262.962 217.981 262.999 217.638 263.185 217.32L265.989 212.526C266.174 212.208 266.494 211.941 266.877 211.784C267.26 211.626 267.675 211.592 268.031 211.687V211.687ZM257.301 208.812L262.666 210.249C263.022 210.345 263.289 210.562 263.409 210.855C263.529 211.147 263.492 211.489 263.306 211.807L260.503 216.602C260.317 216.919 259.997 217.186 259.614 217.344C259.231 217.501 258.816 217.536 258.46 217.441L253.096 216.003C252.74 215.908 252.473 215.69 252.353 215.398C252.233 215.106 252.27 214.763 252.456 214.445L255.259 209.651C255.445 209.333 255.765 209.066 256.148 208.909C256.531 208.752 256.946 208.717 257.301 208.812ZM262.423 221.275L267.788 222.713C268.143 222.808 268.411 223.026 268.531 223.318C268.651 223.61 268.614 223.953 268.428 224.271L265.624 229.065C265.438 229.383 265.119 229.65 264.736 229.807C264.353 229.964 263.938 229.999 263.582 229.904L258.218 228.467C257.862 228.371 257.595 228.154 257.475 227.861C257.355 227.569 257.391 227.226 257.577 226.909L260.381 222.114C260.567 221.797 260.887 221.53 261.27 221.372C261.653 221.215 262.068 221.18 262.423 221.275V221.275ZM251.694 218.4L257.059 219.838C257.414 219.933 257.682 220.151 257.802 220.443C257.922 220.735 257.885 221.078 257.699 221.396L254.895 226.19C254.709 226.508 254.39 226.775 254.007 226.932C253.624 227.09 253.209 227.124 252.853 227.029L247.488 225.592C247.133 225.496 246.865 225.279 246.745 224.986C246.625 224.694 246.662 224.352 246.848 224.034L249.652 219.24C249.838 218.922 250.157 218.655 250.54 218.497C250.923 218.34 251.338 218.305 251.694 218.4Z" stroke="#CBCCCE" stroke-linecap="round" stroke-linejoin="round"/>
</g>
<path d="M207.476 183.651C208.297 182.321 210.165 181.565 211.645 181.962L301.45 205.288C302.931 205.685 303.465 207.087 302.645 208.414L274.354 254.228C273.533 255.558 271.665 256.314 270.185 255.917L180.38 232.591C178.899 232.194 178.365 230.791 179.185 229.464L207.476 183.651Z" fill="#23292F" fill-opacity="0.01" stroke="#23292F" stroke-opacity="0.1" stroke-width="4" stroke-dasharray="2 2"/>
<path d="M207.476 183.651C208.297 182.321 210.165 181.565 211.645 181.962L246.45 191.288C247.931 191.685 248.465 193.087 247.645 194.414L219.354 240.228C218.533 241.558 216.665 242.314 215.185 241.917L180.38 232.591C178.899 232.194 178.365 230.791 179.185 229.464L207.476 183.651Z" fill="white" fill-opacity="0.07"/>
<path fill-rule="evenodd" clip-rule="evenodd" d="M208.327 184.176L180.036 229.99C179.564 230.753 179.812 231.404 180.639 231.625L215.444 240.951C216.495 241.233 217.913 240.658 218.504 239.702L246.795 193.889C247.266 193.125 247.018 192.475 246.191 192.254L211.386 182.928C210.335 182.646 208.917 183.22 208.327 184.176Z" stroke="#23292F" stroke-width="2"/>
<path fill-rule="evenodd" clip-rule="evenodd" d="M250.177 236.409C262.18 239.625 276.366 235.907 281.862 228.105C287.358 220.303 282.083 211.37 270.08 208.154C258.077 204.938 243.891 208.656 238.395 216.458C232.899 224.261 238.174 233.193 250.177 236.409Z" fill="#23292F" fill-opacity="0.01"/>
<path opacity="0.5" fill-rule="evenodd" clip-rule="evenodd" d="M210.682 188.653C211.068 188.027 211.948 187.671 212.64 187.857L213.903 188.195C214.598 188.382 214.847 189.042 214.462 189.666L213.76 190.803C213.374 191.428 212.494 191.784 211.801 191.599L210.539 191.26C209.844 191.074 209.595 190.413 209.98 189.79L210.682 188.653Z" fill="#23292F"/>
<path fill-rule="evenodd" clip-rule="evenodd" d="M217.963 189.944L238.751 195.514C239.448 195.701 239.702 196.356 239.312 196.987C238.925 197.613 238.047 197.97 237.35 197.783L216.562 192.213C215.865 192.026 215.612 191.372 216.001 190.741C216.388 190.114 217.266 189.758 217.963 189.944Z" fill="#CBCCCE"/>
<path opacity="0.5" fill-rule="evenodd" clip-rule="evenodd" d="M207.179 194.325C207.566 193.699 208.445 193.343 209.138 193.529L210.4 193.867C211.096 194.054 211.345 194.714 210.959 195.338L210.257 196.475C209.871 197.1 208.992 197.456 208.299 197.271L207.036 196.932C206.341 196.746 206.092 196.085 206.477 195.462L207.179 194.325Z" fill="#23292F"/>
<path fill-rule="evenodd" clip-rule="evenodd" d="M214.461 195.616L235.249 201.186C235.945 201.373 236.199 202.028 235.81 202.659C235.423 203.285 234.544 203.642 233.848 203.455L213.06 197.885C212.363 197.698 212.109 197.044 212.499 196.413C212.885 195.786 213.764 195.43 214.461 195.616Z" fill="#CBCCCE"/>
<path opacity="0.5" fill-rule="evenodd" clip-rule="evenodd" d="M203.677 199.997C204.063 199.371 204.942 199.015 205.635 199.201L206.898 199.539C207.593 199.726 207.842 200.386 207.457 201.01L206.755 202.147C206.368 202.772 205.489 203.128 204.796 202.943L203.534 202.604C202.838 202.418 202.589 201.757 202.975 201.134L203.677 199.997Z" fill="#23292F"/>
<path fill-rule="evenodd" clip-rule="evenodd" d="M210.958 201.288L231.746 206.858C232.443 207.045 232.697 207.7 232.307 208.331C231.92 208.957 231.042 209.314 230.345 209.127L209.557 203.557C208.86 203.37 208.606 202.716 208.996 202.085C209.383 201.458 210.261 201.102 210.958 201.288Z" fill="#CBCCCE"/>
<g opacity="0.1">
<path opacity="0.1" d="M207.476 283.651C208.297 282.321 210.165 281.565 211.645 281.962L301.45 305.288C302.932 305.685 303.465 307.087 302.646 308.414L274.355 354.228C273.533 355.558 271.665 356.314 270.185 355.917L180.38 332.591C178.899 332.194 178.365 330.791 179.185 329.464L207.476 283.651Z" fill="white" fill-opacity="0.01"/>
<path opacity="0.1" fill-rule="evenodd" clip-rule="evenodd" d="M208.327 284.176L180.036 329.99C179.564 330.753 179.812 331.404 180.632 331.623L270.444 354.951C271.495 355.233 272.913 354.658 273.504 353.702L301.795 307.889C302.266 307.125 302.018 306.475 301.199 306.256L211.386 282.928C210.335 282.646 208.917 283.22 208.327 284.176Z" stroke="#7B7F82" stroke-width="2"/>
</g>
<path fill-rule="evenodd" clip-rule="evenodd" d="M225.147 151.316C225.518 150.715 226.361 150.373 227.03 150.553L267.594 161.089C268.263 161.268 268.504 161.902 268.134 162.501L255.355 183.194C254.984 183.795 254.14 184.137 253.472 183.957L212.908 173.421C212.239 173.242 211.998 172.608 212.368 172.009L225.147 151.316Z" fill="#138EF2" fill-opacity="0.07"/>
<path d="M207.476 283.651C208.297 282.321 210.165 281.565 211.645 281.962L246.45 291.288C247.932 291.685 248.465 293.087 247.646 294.414L219.355 340.228C218.533 341.558 216.665 342.314 215.185 341.917L180.38 332.591C178.899 332.194 178.365 330.791 179.185 329.464L207.476 283.651Z" fill="white" fill-opacity="0.07"/>
<path fill-rule="evenodd" clip-rule="evenodd" d="M208.327 284.176L180.036 329.99C179.564 330.753 179.812 331.404 180.639 331.625L215.444 340.951C216.495 341.233 217.913 340.658 218.504 339.702L246.795 293.889C247.266 293.125 247.018 292.475 246.191 292.254L211.386 282.928C210.335 282.646 208.917 283.22 208.327 284.176Z" stroke="#23292F" stroke-width="2"/>
<path opacity="0.5" fill-rule="evenodd" clip-rule="evenodd" d="M210.682 288.653C211.068 288.027 211.948 287.671 212.64 287.857L213.903 288.195C214.598 288.382 214.847 289.042 214.462 289.666L213.76 290.803C213.374 291.428 212.494 291.784 211.802 291.598L210.539 291.26C209.844 291.074 209.595 290.413 209.98 289.79L210.682 288.653Z" fill="#23292F"/>
<path fill-rule="evenodd" clip-rule="evenodd" d="M217.963 289.944L238.751 295.514C239.448 295.701 239.702 296.356 239.312 296.987C238.925 297.613 238.047 297.97 237.35 297.783L216.562 292.213C215.865 292.026 215.612 291.371 216.001 290.741C216.388 290.114 217.266 289.757 217.963 289.944Z" fill="#CBCCCE"/>
<path opacity="0.5" fill-rule="evenodd" clip-rule="evenodd" d="M207.179 294.325C207.566 293.699 208.445 293.343 209.138 293.529L210.401 293.867C211.096 294.054 211.345 294.714 210.959 295.338L210.257 296.475C209.871 297.1 208.992 297.456 208.299 297.27L207.036 296.932C206.341 296.746 206.092 296.085 206.477 295.462L207.179 294.325Z" fill="#23292F"/>
<path fill-rule="evenodd" clip-rule="evenodd" d="M214.461 295.616L235.249 301.186C235.945 301.373 236.199 302.028 235.81 302.659C235.423 303.285 234.544 303.642 233.848 303.455L213.06 297.885C212.363 297.698 212.109 297.044 212.499 296.413C212.885 295.786 213.764 295.43 214.461 295.616Z" fill="#CBCCCE"/>
<path opacity="0.5" fill-rule="evenodd" clip-rule="evenodd" d="M203.677 299.997C204.063 299.371 204.942 299.015 205.635 299.201L206.898 299.539C207.593 299.726 207.842 300.386 207.457 301.01L206.755 302.147C206.368 302.772 205.489 303.128 204.796 302.943L203.534 302.604C202.838 302.418 202.59 301.757 202.975 301.134L203.677 299.997Z" fill="#23292F"/>
<path fill-rule="evenodd" clip-rule="evenodd" d="M210.958 301.288L231.746 306.858C232.443 307.045 232.697 307.7 232.307 308.331C231.92 308.957 231.042 309.314 230.345 309.127L209.557 303.557C208.86 303.37 208.606 302.716 208.996 302.085C209.383 301.458 210.261 301.102 210.958 301.288Z" fill="#CBCCCE"/>
<path d="M228.293 271.293C228.683 270.902 229.317 270.902 229.707 271.293C230.098 271.683 230.098 272.317 229.707 272.707L225.707 276.707C225.317 277.098 224.683 277.098 224.293 276.707L220.293 272.707C219.902 272.317 219.902 271.683 220.293 271.293C220.683 270.902 221.317 270.902 221.707 271.293L225 274.586L228.293 271.293Z" fill="#138EF2"/>
<path d="M224 274V257C224 256.448 224.448 256 225 256C225.552 256 226 256.448 226 257V274C226 274.552 225.552 275 225 275C224.448 275 224 274.552 224 274Z" fill="#138EF2"/>
<path fill-rule="evenodd" clip-rule="evenodd" d="M369.476 206.651C370.297 205.321 372.165 204.565 373.645 204.962L463.45 228.288C464.932 228.685 465.465 230.087 464.646 231.414L436.355 277.228C435.533 278.558 433.665 279.314 432.185 278.917L342.38 255.591C340.899 255.194 340.365 253.791 341.185 252.464L369.476 206.651Z" fill="#EEEFEF" fill-opacity="0.07"/>
<mask id="mask1_3:479" style="mask-type:alpha" maskUnits="userSpaceOnUse" x="338" y="198" width="126" height="76">
<path d="M367.476 200.651C368.297 199.321 370.165 198.565 371.645 198.962L461.45 222.288C462.932 222.685 463.465 224.087 462.646 225.414L434.355 271.228C433.533 272.558 431.665 273.314 430.185 272.917L340.38 249.591C338.899 249.194 338.365 247.791 339.185 246.464L367.476 200.651Z" fill="white"/>
</mask>
<g mask="url(#mask1_3:479)">
<path d="M367.476 200.651C368.297 199.321 370.165 198.565 371.645 198.962L461.45 222.288C462.932 222.685 463.465 224.087 462.646 225.414L434.355 271.228C433.533 272.558 431.665 273.314 430.185 272.917L340.38 249.591C338.899 249.194 338.365 247.791 339.185 246.464L367.476 200.651Z" fill="white" fill-opacity="0.07"/>
<path fill-rule="evenodd" clip-rule="evenodd" d="M368.327 201.176L340.036 246.99C339.564 247.753 339.812 248.404 340.632 248.623L430.444 271.951C431.495 272.233 432.913 271.658 433.504 270.702L461.795 224.889C462.266 224.125 462.018 223.475 461.199 223.256L371.386 199.928C370.335 199.646 368.917 200.22 368.327 201.176Z" stroke="#23292F" stroke-width="2"/>
<path fill-rule="evenodd" clip-rule="evenodd" d="M405.713 222.912C406.084 222.312 406.928 221.97 407.597 222.149L448.161 232.686C448.83 232.865 449.071 233.498 448.7 234.098L435.922 254.791C435.551 255.392 434.707 255.733 434.038 255.554L393.475 245.018C392.805 244.839 392.564 244.205 392.935 243.606L405.713 222.912Z" fill="#138EF2" fill-opacity="0.07"/>
<path fill-rule="evenodd" clip-rule="evenodd" d="M410.963 215.944L431.751 221.514C432.448 221.701 432.702 222.356 432.312 222.987C431.925 223.613 431.047 223.97 430.35 223.783L409.562 218.213C408.865 218.026 408.612 217.372 409.001 216.741C409.388 216.114 410.266 215.758 410.963 215.944Z" fill="#CBCCCE"/>
<path fill-rule="evenodd" clip-rule="evenodd" d="M425.013 239.293L414.356 241.433L419.367 233.922L425.013 239.293Z" fill="white"/>
<path opacity="0.5" fill-rule="evenodd" clip-rule="evenodd" d="M370.682 205.653C371.068 205.027 371.948 204.671 372.64 204.857L373.903 205.195C374.598 205.382 374.847 206.042 374.462 206.666L373.76 207.803C373.374 208.428 372.494 208.784 371.802 208.599L370.539 208.26C369.844 208.074 369.595 207.413 369.98 206.79L370.682 205.653Z" fill="#23292F"/>
<path fill-rule="evenodd" clip-rule="evenodd" d="M377.963 206.944L398.751 212.514C399.448 212.701 399.702 213.356 399.312 213.987C398.925 214.613 398.047 214.97 397.35 214.783L376.562 209.213C375.865 209.026 375.612 208.372 376.001 207.741C376.388 207.114 377.266 206.758 377.963 206.944Z" fill="#CBCCCE"/>
<path opacity="0.5" fill-rule="evenodd" clip-rule="evenodd" d="M367.179 211.325C367.566 210.699 368.445 210.343 369.138 210.529L370.401 210.867C371.096 211.054 371.345 211.714 370.959 212.338L370.257 213.475C369.871 214.1 368.992 214.456 368.299 214.271L367.036 213.932C366.341 213.746 366.092 213.085 366.477 212.462L367.179 211.325Z" fill="#23292F"/>
<path fill-rule="evenodd" clip-rule="evenodd" d="M374.461 212.616L395.249 218.186C395.945 218.373 396.199 219.028 395.81 219.659C395.423 220.285 394.544 220.642 393.848 220.455L373.06 214.885C372.363 214.698 372.109 214.044 372.499 213.413C372.885 212.786 373.764 212.43 374.461 212.616Z" fill="#CBCCCE"/>
<path opacity="0.5" fill-rule="evenodd" clip-rule="evenodd" d="M363.677 216.997C364.063 216.371 364.942 216.015 365.635 216.201L366.898 216.539C367.593 216.726 367.842 217.386 367.457 218.01L366.755 219.147C366.368 219.772 365.489 220.128 364.796 219.943L363.534 219.604C362.838 219.418 362.59 218.757 362.975 218.134L363.677 216.997Z" fill="#23292F"/>
<path fill-rule="evenodd" clip-rule="evenodd" d="M370.958 218.288L391.746 223.858C392.443 224.045 392.697 224.7 392.307 225.331C391.92 225.957 391.042 226.314 390.345 226.127L369.557 220.557C368.86 220.37 368.606 219.716 368.996 219.085C369.383 218.458 370.261 218.102 370.958 218.288Z" fill="#CBCCCE"/>
<path opacity="0.299932" d="M377.176 258.238L408.141 208.912" stroke="#7B7F82" stroke-width="2"/>
</g>
<path fill-rule="evenodd" clip-rule="evenodd" d="M379 181.5C382.038 181.5 384.5 179.038 384.5 176C384.5 179.038 386.962 181.5 390 181.5C386.962 181.5 384.5 183.962 384.5 187C384.5 183.962 382.038 181.5 379 181.5Z" fill="#138EF2"/>
<path fill-rule="evenodd" clip-rule="evenodd" d="M355 270.5C358.038 270.5 360.5 268.038 360.5 265C360.5 268.038 362.962 270.5 366 270.5C362.962 270.5 360.5 272.962 360.5 276C360.5 272.962 358.038 270.5 355 270.5Z" fill="#138EF2"/>
<path fill-rule="evenodd" clip-rule="evenodd" d="M435 200.5C438.038 200.5 440.5 198.038 440.5 195C440.5 198.038 442.962 200.5 446 200.5C442.962 200.5 440.5 202.962 440.5 206C440.5 202.962 438.038 200.5 435 200.5Z" fill="#138EF2"/>
<path d="M450.5 266C451.328 266 452 265.328 452 264.5C452 263.672 451.328 263 450.5 263C449.672 263 449 263.672 449 264.5C449 265.328 449.672 266 450.5 266Z" fill="#138EF2"/>
<path d="M395.5 194C396.328 194 397 193.328 397 192.5C397 191.672 396.328 191 395.5 191C394.672 191 394 191.672 394 192.5C394 193.328 394.672 194 395.5 194Z" fill="#138EF2"/>
<path d="M354.5 278C355.328 278 356 277.328 356 276.5C356 275.672 355.328 275 354.5 275C353.672 275 353 275.672 353 276.5C353 277.328 353.672 278 354.5 278Z" fill="#138EF2"/>
<path d="M341.221 339.32V345.939C341.217 346.932 340.762 347.527 339.952 347.644C339.197 347.754 338.692 347.363 338.679 346.602L337 346.845C337 348.583 338.255 349.292 339.889 349.055C341.685 348.795 342.891 347.517 342.895 345.696V339.077L341.221 339.32Z" fill="#CBCCCE"/>
<path d="M344.726 348.225L350.822 347.341V345.912L346.414 346.551V343.982L350.471 343.393V341.964L346.414 342.552V339.997L350.785 339.363V337.933L344.726 338.812V348.225Z" fill="#CBCCCE"/>
<path d="M352.098 339.173L354.977 338.755V346.739L356.651 346.496V338.512L359.53 338.095V336.665L352.098 337.743V339.173Z" fill="#CBCCCE"/>
<path d="M364.141 345.41L365.828 345.166V341.718L367.548 341.469L369.376 344.651L371.26 344.378L369.245 340.938C370.341 340.333 370.919 339.303 370.919 338.025C370.919 336.228 369.772 335.18 367.634 335.49L364.141 335.997V345.41ZM365.828 340.303V337.177L367.375 336.953C368.635 336.77 369.199 337.272 369.199 338.274C369.199 339.276 368.635 339.896 367.384 340.077L365.828 340.303Z" fill="#CBCCCE"/>
<path d="M380.796 338.289C380.796 335.246 378.959 333.72 376.516 334.074C374.069 334.429 372.235 336.487 372.235 339.53C372.235 342.568 374.069 344.1 376.516 343.745C378.959 343.391 380.796 341.331 380.796 338.289ZM379.1 338.535C379.1 340.677 378.035 341.994 376.516 342.214C375.001 342.434 373.932 341.426 373.932 339.284C373.932 337.142 375.001 335.824 376.516 335.604C378.035 335.384 379.1 336.393 379.1 338.535Z" fill="#CBCCCE"/>
<path d="M383.088 342.663L383.857 340.23L387.359 339.723L388.133 341.932L389.934 341.67L386.65 332.733L384.566 333.035L381.287 342.924L383.088 342.663ZM384.311 338.795L385.572 334.82L385.644 334.809L386.904 338.419L384.311 338.795Z" fill="#CBCCCE"/>
<path d="M394.318 341.035C397.156 340.623 398.839 338.605 398.839 335.663C398.839 332.731 397.156 331.21 394.382 331.612L391.161 332.079V341.493L394.318 341.035ZM392.849 339.772V333.31L394.286 333.101C396.178 332.827 397.165 333.75 397.165 335.906C397.165 338.071 396.178 339.29 394.236 339.571L392.849 339.772Z" fill="#CBCCCE"/>
<path d="M405.506 332.587L407.13 332.352C407.098 330.766 405.756 329.834 403.773 330.122C401.817 330.405 400.347 331.731 400.352 333.394C400.352 334.745 401.303 335.384 402.836 335.562L403.895 335.684C404.901 335.796 405.565 336.017 405.569 336.747C405.565 337.552 404.81 338.199 403.709 338.359C402.654 338.512 401.835 338.152 401.767 337.174L400.106 337.415C400.174 339.276 401.553 340.128 403.723 339.814C405.956 339.49 407.252 338.176 407.257 336.516C407.252 334.885 405.92 334.333 404.519 334.201L403.645 334.107C402.881 334.034 402.053 333.828 402.062 333.04C402.067 332.332 402.695 331.721 403.75 331.568C404.755 331.423 405.419 331.8 405.506 332.587Z" fill="#CBCCCE"/>
<path d="M408.352 331.016L411.232 330.598V338.582L412.906 338.34V330.356L415.785 329.938V328.509L408.352 329.587V331.016Z" fill="#CBCCCE"/>
<path d="M417.218 337.715L423.313 336.831V335.401L418.906 336.04V333.471L422.963 332.883V331.453L418.906 332.041V329.486L423.277 328.852V327.423L417.218 328.301V337.715Z" fill="#CBCCCE"/>
<path d="M424.999 336.586L426.686 336.342V332.894L428.406 332.645L430.234 335.827L432.118 335.554L430.103 332.114C431.199 331.509 431.776 330.479 431.776 329.201C431.776 327.404 430.63 326.356 428.492 326.666L424.999 327.173V336.586ZM426.686 331.479V328.353L428.233 328.129C429.493 327.946 430.057 328.448 430.057 329.45C430.057 330.452 429.493 331.072 428.242 331.253L426.686 331.479Z" fill="#CBCCCE"/>
<path d="M436.416 334.931L442.803 334.005V332.58L438.745 333.168V333.104L440.351 331.221C442.162 329.203 442.662 328.275 442.662 327.213C442.662 325.637 441.393 324.667 439.519 324.939C437.672 325.207 436.362 326.555 436.362 328.343L437.967 328.11C437.967 327.149 438.568 326.46 439.496 326.326C440.383 326.197 441.043 326.648 441.043 327.536C441.043 328.322 440.569 328.951 439.651 330.026L436.416 333.699V334.931Z" fill="#CBCCCE"/>
<path d="M447.816 333.457C450.063 333.136 451.405 331.149 451.405 328.06C451.405 324.99 450.054 323.411 447.816 323.736C445.578 324.06 444.231 326.025 444.227 329.101C444.227 332.185 445.569 333.783 447.816 333.457ZM447.816 332.019C446.656 332.187 445.928 331.116 445.933 328.854C445.937 326.61 446.66 325.324 447.816 325.156C448.976 324.988 449.699 326.064 449.704 328.307C449.704 330.568 448.98 331.85 447.816 332.019Z" fill="#CBCCCE"/>
<path d="M452.916 332.538L459.303 331.612V330.188L455.245 330.776V330.712L456.851 328.829C458.661 326.81 459.162 325.883 459.162 324.821C459.162 323.244 457.893 322.275 456.018 322.547C454.172 322.814 452.862 324.163 452.862 325.951L454.467 325.718C454.467 324.757 455.068 324.068 455.996 323.933C456.883 323.805 457.542 324.256 457.542 325.143C457.542 325.929 457.069 326.559 456.15 327.634L452.916 331.307V332.538Z" fill="#CBCCCE"/>
<path d="M464.661 321.422L463.056 321.655L460.74 323.494V325.056L462.919 323.334L462.974 323.326V331.08L464.661 330.836V321.422Z" fill="#CBCCCE"/>
<path fill-rule="evenodd" clip-rule="evenodd" d="M32.6 192.221L32.44 192.243L20 200.72L22.4 205.781L26.72 202.891V222.971L32.6 222.141V192.221Z" fill="#23292F"/>
<path fill-rule="evenodd" clip-rule="evenodd" d="M42 198.333C42 197.538 42.6317 196.812 43.4227 196.711L104.406 188.906C105.192 188.805 105.829 189.363 105.829 190.164V194.486C105.829 195.281 105.197 196.007 104.406 196.108L43.4227 203.913C42.6369 204.014 42 203.456 42 202.655V198.333Z" fill="#23292F" fill-opacity="0.2"/>
<path opacity="0.5" fill-rule="evenodd" clip-rule="evenodd" d="M42 209.857C42 209.062 42.6382 208.335 43.4234 208.235L146.958 194.983C147.745 194.883 148.382 195.44 148.382 196.241V200.563C148.382 201.359 147.744 202.085 146.958 202.186L43.4234 215.437C42.6373 215.538 42 214.98 42 214.179V209.857Z" fill="#23292F" fill-opacity="0.1"/>
<path fill-rule="evenodd" clip-rule="evenodd" d="M367 121.333C367 120.538 367.63 119.812 368.418 119.711L407.281 114.906C408.065 114.805 408.7 115.363 408.7 116.164V120.486C408.7 121.281 408.07 122.007 407.281 122.108L368.418 126.913C367.635 127.014 367 126.456 367 125.655V121.333Z" fill="#23292F" fill-opacity="0.2"/>
<path opacity="0.5" fill-rule="evenodd" clip-rule="evenodd" d="M367 132.857C367 132.062 367.638 131.335 368.423 131.235L448.958 120.983C449.745 120.883 450.382 121.44 450.382 122.241V126.563C450.382 127.359 449.744 128.085 448.958 128.186L368.423 138.437C367.637 138.538 367 137.98 367 137.179V132.857Z" fill="#23292F" fill-opacity="0.1"/>
<path fill-rule="evenodd" clip-rule="evenodd" d="M49.8278 253.208C50.649 251.878 52.5169 251.122 53.9971 251.519L88.8018 260.845C90.2832 261.242 90.8167 262.644 89.9972 263.971L61.7063 309.785C60.8851 311.115 59.0172 311.871 57.537 311.474L22.7323 302.148C21.2508 301.751 20.7174 300.349 21.5368 299.022L49.8278 253.208Z" fill="#23292F" fill-opacity="0.01"/>
<path fill-rule="evenodd" clip-rule="evenodd" d="M50.4759 253.651C51.2971 252.321 53.1651 251.565 54.6452 251.962L144.45 275.288C145.932 275.685 146.465 277.087 145.646 278.414L117.355 324.228C116.533 325.558 114.665 326.314 113.185 325.917L23.3804 302.591C21.8989 302.194 21.3655 300.791 22.1849 299.464L50.4759 253.651Z" fill="#23292F" fill-opacity="0.01"/>
<path d="M50.4759 233.651C51.2971 232.321 53.1651 231.565 54.6452 231.962L89.4501 241.288C90.9315 241.685 91.465 243.087 90.6455 244.414L62.3545 290.228C61.5333 291.558 59.6654 292.314 58.1853 291.917L23.3804 282.591C21.8989 282.194 21.3655 280.791 22.1849 279.464L50.4759 233.651Z" fill="#138EF2" fill-opacity="0.07"/>
<path fill-rule="evenodd" clip-rule="evenodd" d="M51.3268 234.176L23.0358 279.99C22.5642 280.753 22.8124 281.404 23.6392 281.625L58.4441 290.951C59.4954 291.233 60.9133 290.658 61.5037 289.702L89.7947 243.889C90.2663 243.125 90.0181 242.475 89.1913 242.254L54.3864 232.928C53.3351 232.646 51.9172 233.22 51.3268 234.176Z" stroke="#23292F" stroke-width="2"/>
<path opacity="0.5" fill-rule="evenodd" clip-rule="evenodd" d="M53.6819 238.653C54.0684 238.027 54.9476 237.671 55.6405 237.857L56.9031 238.195C57.5983 238.382 57.8473 239.042 57.4621 239.666L56.7601 240.803C56.3736 241.428 55.4944 241.784 54.8016 241.599L53.5389 241.26C52.8437 241.074 52.5948 240.413 52.9799 239.79L53.6819 238.653Z" fill="white"/>
<path fill-rule="evenodd" clip-rule="evenodd" d="M60.9633 239.944L81.7513 245.514C82.448 245.701 82.7019 246.356 82.3123 246.987C81.9254 247.613 81.0471 247.97 80.3502 247.783L59.5623 242.213C58.8655 242.026 58.6116 241.372 59.0012 240.741C59.3881 240.114 60.2664 239.758 60.9633 239.944Z" fill="white"/>
<path opacity="0.5" fill-rule="evenodd" clip-rule="evenodd" d="M50.1793 244.325C50.5658 243.699 51.4451 243.343 52.1379 243.529L53.4006 243.867C54.0957 244.054 54.3447 244.714 53.9595 245.338L53.2575 246.475C52.871 247.1 51.9918 247.456 51.299 247.271L50.0363 246.932C49.3411 246.746 49.0922 246.085 49.4773 245.462L50.1793 244.325Z" fill="white"/>
<path fill-rule="evenodd" clip-rule="evenodd" d="M57.4607 245.616L78.2486 251.186C78.9454 251.373 79.1993 252.028 78.8097 252.659C78.4228 253.285 77.5445 253.642 76.8476 253.455L56.0596 247.885C55.3629 247.698 55.109 247.044 55.4986 246.413C55.8855 245.786 56.7638 245.43 57.4607 245.616Z" fill="white"/>
<path opacity="0.5" fill-rule="evenodd" clip-rule="evenodd" d="M46.6767 249.997C47.0632 249.371 47.9424 249.015 48.6352 249.201L49.8979 249.539C50.5931 249.726 50.842 250.386 50.4569 251.01L49.7549 252.147C49.3684 252.772 48.4892 253.128 47.7964 252.943L46.5337 252.604C45.8385 252.418 45.5896 251.757 45.9747 251.134L46.6767 249.997Z" fill="white"/>
<path fill-rule="evenodd" clip-rule="evenodd" d="M53.9581 251.288L74.746 256.858C75.4428 257.045 75.6967 257.7 75.3071 258.331C74.9202 258.957 74.0419 259.314 73.345 259.127L52.557 253.557C51.8603 253.37 51.6064 252.716 51.996 252.085C52.3829 251.458 53.2612 251.102 53.9581 251.288Z" fill="white"/>
<path fill-rule="evenodd" clip-rule="evenodd" d="M39.4556 349.086L44 358.121L41.8494 358.377L41.235 356.99L37.6251 357.419L37.0106 358.951L34.86 359.206L39.4044 349.092L39.4556 349.086ZM39.43 352.865L38.2395 355.822L40.6205 355.54L39.43 352.865Z" fill="white"/>
<path fill-rule="evenodd" clip-rule="evenodd" d="M187.44 100.09C182.32 99.4987 179.08 101.885 178 107.4L183.36 109.259C183.84 106.394 185.12 105.102 187.44 105.37C189.64 105.624 191.16 107.239 191.16 109.639C191.16 111.639 190.6 112.774 188.96 114.945L178.48 128.735V128.975L197.4 131.159V125.879L188.8 124.887L193.92 118.518C195.92 116.028 197.16 113.772 197.16 110.492C197.16 105.092 193.32 100.768 187.44 100.09Z" fill="#23292F"/>
<path fill-rule="evenodd" clip-rule="evenodd" d="M205 110.333C205 109.538 205.632 108.977 206.423 109.083L267.406 117.235C268.192 117.34 268.829 118.064 268.829 118.865V123.187C268.829 123.983 268.197 124.543 267.406 124.437L206.423 116.285C205.637 116.18 205 115.456 205 114.655V110.333Z" fill="#23292F" fill-opacity="0.2"/>
<path opacity="0.5" fill-rule="evenodd" clip-rule="evenodd" d="M205 121.857C205 121.062 205.638 120.502 206.423 120.607L309.958 134.447C310.745 134.552 311.382 135.276 311.382 136.077V140.399C311.382 141.195 310.744 141.754 309.958 141.649L206.423 127.809C205.637 127.704 205 126.98 205 126.179V121.857Z" fill="#23292F" fill-opacity="0.1"/>
<path fill-rule="evenodd" clip-rule="evenodd" d="M348.6 116.481C343.96 116.959 340.84 119.882 339.56 124.134L344.68 125.765C345.24 123.347 346.6 121.967 348.56 121.765C350.6 121.554 352.12 122.797 352.12 125.037C352.12 127.317 350.52 128.762 348.64 128.996L345.52 129.318V133.998L348.6 133.681C351 133.433 352.68 134.899 352.68 137.219C352.68 139.659 351.12 141.38 348.8 141.62C346.24 141.884 344.92 140.5 344.32 137.842L339 139.671C340.24 145.023 343.56 147.441 348.84 146.896C354.8 146.281 358.6 142.088 358.6 136.728C358.6 133.608 357 131.613 354.6 130.741C356.56 129.419 358 127.39 358 124.43C358 119.35 354.28 115.894 348.6 116.481Z" fill="#23292F"/>
</g>
<ellipse rx="12.5023" ry="11.7669" transform="matrix(0.965926 0.258819 -0.269424 0.963022 123.247 144.568)" fill="#E9E9EA"/>
</g>
<defs>
<clipPath id="clip0_3:479">
<rect width="480" height="395" fill="white"/>
</clipPath>
<clipPath id="clip1_3:479">
<rect width="29.1576" height="29.1576" fill="white" transform="matrix(0.965926 0.258819 -0.504829 0.863219 253.72 203)"/>
</clipPath>
</defs>
</svg>
